<svg width="58" height="58" viewBox="0 0 58 58" fill="none" xmlns="http://www.w3.org/2000/svg">
<path d="M26.8436 0.769132C27.9799 -0.240037 29.6914 -0.240037 30.8278 0.769132L32.9251 2.63177C33.7155 3.33374 34.8171 3.56788 35.8247 3.24809L38.4983 2.39956C39.9469 1.93983 41.5104 2.63596 42.1381 4.02007L43.2965 6.57475C43.7331 7.53752 44.6441 8.19946 45.6947 8.31716L48.4823 8.62945C49.9926 8.79865 51.1378 10.0705 51.1483 11.5903L51.1675 14.3953C51.1747 15.4524 51.7378 16.4276 52.6496 16.9625L55.0692 18.3816C56.3802 19.1505 56.909 20.7782 56.3004 22.1708L55.1771 24.7411C54.7537 25.7097 54.8714 26.8297 55.4869 27.6892L57.1201 29.9697C58.005 31.2054 57.8261 32.9075 56.7036 33.9321L54.632 35.8233C53.8512 36.536 53.5032 37.607 53.7159 38.6425L54.2804 41.3902C54.5862 42.8789 53.7304 44.3611 52.2883 44.8406L49.6265 45.7257C48.6234 46.0592 47.8698 46.8961 47.643 47.9286L47.041 50.6683C46.7148 52.1527 45.3302 53.1587 43.8177 53.0102L41.0261 52.7361C39.974 52.6328 38.9452 53.0908 38.318 53.9418L36.6537 56.1998C35.7521 57.4231 34.078 57.779 32.7566 57.0281L30.3179 55.6423C29.3987 55.12 28.2726 55.12 27.3535 55.6423L24.9147 57.0281C23.5934 57.779 21.9193 57.4231 21.0176 56.1998L19.3533 53.9418C18.7261 53.0908 17.6973 52.6328 16.6453 52.7361L13.8536 53.0102C12.3411 53.1587 10.9565 52.1527 10.6304 50.6683L10.0284 47.9286C9.80152 46.8961 9.04798 46.0592 8.04484 45.7257L5.38307 44.8406C3.94093 44.3611 3.08519 42.8789 3.39099 41.3902L3.9554 38.6425C4.1681 37.607 3.8201 36.536 3.03936 35.8233L0.967692 33.9321C-0.154728 32.9075 -0.333627 31.2054 0.551234 29.9697L2.18443 27.6892C2.79993 26.8297 2.91765 25.7097 2.49429 24.7411L1.37094 22.1708C0.762312 20.7782 1.29119 19.1505 2.60211 18.3816L5.02171 16.9625C5.93357 16.4276 6.49665 15.4524 6.50389 14.3953L6.52309 11.5903C6.53349 10.0705 7.6787 8.79865 9.18902 8.62945L11.9766 8.31716C13.0272 8.19946 13.9383 7.53752 14.3749 6.57475L15.5333 4.02007C16.1609 2.63596 17.7244 1.93983 19.173 2.39956L21.8466 3.24809C22.8543 3.56788 23.9558 3.33374 24.7462 2.63177L26.8436 0.769132Z" fill="#F2B823"/>
</svg>
