<svg width="44" height="44" viewBox="0 0 44 44" fill="none" xmlns="http://www.w3.org/2000/svg">
<path d="M19.6319 0.769134C20.7682 -0.240035 22.4797 -0.240035 23.616 0.769134L24.4168 1.48029C25.2072 2.18226 26.3088 2.4164 27.3164 2.09661L28.3372 1.77264C29.7858 1.31292 31.3493 2.00904 31.9769 3.39315L32.4192 4.36853C32.8558 5.33131 33.7669 5.99324 34.8174 6.11094L35.8817 6.23017C37.392 6.39938 38.5373 7.67125 38.5477 9.19099L38.555 10.2619C38.5622 11.319 39.1253 12.2943 40.0372 12.8291L40.961 13.371C42.2719 14.1398 42.8008 15.7676 42.1921 17.1601L41.7633 18.1415C41.3399 19.1101 41.4576 20.2301 42.0731 21.0896L42.6967 21.9603C43.5815 23.1959 43.4026 24.898 42.2802 25.9227L41.4892 26.6447C40.7085 27.3574 40.3605 28.4285 40.5732 29.464L40.7887 30.5131C41.0945 32.0017 40.2388 33.4839 38.7966 33.9635L37.7803 34.3014C36.7772 34.6349 36.0237 35.4718 35.7968 36.5043L35.567 37.5503C35.2408 39.0347 33.8562 40.0407 32.3437 39.8922L31.2779 39.7875C30.2258 39.6842 29.197 40.1423 28.5698 40.9932L27.9344 41.8553C27.0327 43.0787 25.3586 43.4345 24.0373 42.6837L23.1061 42.1546C22.187 41.6323 21.0609 41.6323 20.1418 42.1546L19.2106 42.6837C17.8893 43.4345 16.2152 43.0787 15.3135 41.8553L14.6781 40.9932C14.0509 40.1423 13.0221 39.6842 11.97 39.7875L10.9042 39.8922C9.39169 40.0407 8.00707 39.0347 7.68093 37.5503L7.45109 36.5043C7.22423 35.4718 6.47069 34.6349 5.46755 34.3014L4.45128 33.9635C3.00915 33.4839 2.1534 32.0017 2.4592 30.5131L2.67469 29.464C2.8874 28.4285 2.5394 27.3574 1.75865 26.6447L0.967689 25.9227C-0.154731 24.898 -0.33363 23.1959 0.55123 21.9603L1.17479 21.0896C1.79029 20.2301 1.908 19.1101 1.48465 18.1415L1.05575 17.1601C0.447123 15.7676 0.975999 14.1398 2.28692 13.371L3.21073 12.8291C4.1226 12.2943 4.68567 11.319 4.69291 10.2619L4.70024 9.19099C4.71064 7.67125 5.85585 6.39938 7.36617 6.23017L8.43048 6.11094C9.48105 5.99324 10.3921 5.33131 10.8287 4.36853L11.271 3.39315C11.8986 2.00904 13.4621 1.31292 14.9107 1.77265L15.9315 2.09661C16.9391 2.4164 18.0407 2.18226 18.8311 1.48029L19.6319 0.769134Z" fill="#1B2EFF"/>
</svg>
