<svg width="45" height="45" viewBox="0 0 45 45" fill="none" xmlns="http://www.w3.org/2000/svg">
<path d="M21.1679 1.18956C21.9267 0.511942 23.0733 0.511944 23.8321 1.18956L25.6933 2.85151C26.2212 3.32298 26.9591 3.48025 27.6334 3.26506L30.0037 2.50868C30.9715 2.19982 32.0172 2.66567 32.4349 3.59181L33.4683 5.88336C33.7584 6.52675 34.3662 6.96957 35.0676 7.04858L37.5489 7.32809C38.5552 7.44146 39.318 8.28919 39.3249 9.30191L39.3422 11.8333C39.347 12.5364 39.7206 13.1853 40.3262 13.5424L42.4935 14.8206C43.3633 15.3336 43.7143 16.4145 43.3118 17.3406L42.3006 19.6669C42.021 20.3102 42.0988 21.053 42.5058 21.6244L43.9751 23.6874C44.5605 24.5094 44.4419 25.6387 43.6985 26.3211L41.8379 28.029C41.3207 28.5037 41.0903 29.2148 41.2308 29.9027L41.7384 32.3874C41.9408 33.378 41.3719 34.3639 40.413 34.6845L38.0363 35.4791C37.3683 35.7025 36.867 36.2608 36.7166 36.9489L36.1778 39.4144C35.9613 40.4054 35.037 41.0774 34.0274 40.9777L31.5489 40.733C30.8453 40.6635 30.1573 40.9707 29.7393 41.5409L28.2591 43.5603C27.6579 44.3805 26.5369 44.6189 25.6539 44.1144L23.4922 42.8793C22.8774 42.5279 22.1226 42.5279 21.5078 42.8793L19.3462 44.1144C18.4631 44.6189 17.3421 44.3805 16.7409 43.5603L15.2607 41.5409C14.8427 40.9707 14.1547 40.6635 13.4511 40.733L10.9726 40.9777C9.963 41.0774 9.03873 40.4054 8.82216 39.4144L8.28342 36.9489C8.13305 36.2608 7.63175 35.7025 6.9637 35.4791L4.58699 34.6845C3.62807 34.3639 3.05925 33.378 3.26163 32.3874L3.76922 29.9027C3.90974 29.2148 3.67932 28.5037 3.16213 28.029L1.30149 26.3211C0.558079 25.6387 0.439463 24.5094 1.02487 23.6874L2.49422 21.6244C2.90116 21.053 2.97901 20.3102 2.69938 19.6669L1.68825 17.3406C1.28571 16.4145 1.63668 15.3336 2.5065 14.8206L4.67384 13.5424C5.27944 13.1853 5.65303 12.5364 5.65782 11.8333L5.67505 9.30191C5.68195 8.28919 6.44475 7.44146 7.45113 7.32809L9.93242 7.04858C10.6338 6.96957 11.2416 6.52675 11.5317 5.88335L12.5651 3.59181C12.9828 2.66567 14.0285 2.19981 14.9963 2.50868L17.3666 3.26506C18.0409 3.48025 18.7788 3.32298 19.3067 2.85151L21.1679 1.18956Z" fill="black"/>
</svg>
