<svg width="45" height="45" viewBox="0 0 45 45" fill="none" xmlns="http://www.w3.org/2000/svg">
<path d="M21.1678 1.18956C21.9266 0.511942 23.0732 0.511944 23.832 1.18956L25.6931 2.85151C26.2211 3.32298 26.959 3.48025 27.6333 3.26506L30.0035 2.50868C30.9714 2.19982 32.0171 2.66567 32.4347 3.59181L33.4682 5.88336C33.7583 6.52675 34.3661 6.96957 35.0675 7.04858L37.5487 7.32809C38.5551 7.44146 39.3179 8.28919 39.3248 9.30191L39.3421 11.8333C39.3468 12.5364 39.7204 13.1853 40.326 13.5424L42.4934 14.8206C43.3632 15.3336 43.7142 16.4145 43.3116 17.3406L42.3005 19.6669C42.0209 20.3102 42.0987 21.053 42.5057 21.6244L43.975 23.6874C44.5604 24.5094 44.4418 25.6387 43.6984 26.3211L41.8377 28.029C41.3206 28.5037 41.0901 29.2148 41.2307 29.9027L41.7383 32.3874C41.9406 33.378 41.3718 34.3639 40.4129 34.6845L38.0362 35.4791C37.3681 35.7025 36.8668 36.2608 36.7165 36.9489L36.1777 39.4144C35.9611 40.4054 35.0369 41.0774 34.0273 40.9777L31.5488 40.733C30.8452 40.6635 30.1572 40.9707 29.7392 41.5409L28.259 43.5603C27.6578 44.3805 26.5367 44.6189 25.6537 44.1144L23.4921 42.8793C22.8773 42.5279 22.1225 42.5279 21.5077 42.8793L19.346 44.1144C18.463 44.6189 17.342 44.3805 16.7407 43.5603L15.2605 41.5409C14.8426 40.9707 14.1546 40.6635 13.451 40.733L10.9724 40.9777C9.96288 41.0774 9.03861 40.4054 8.82204 39.4144L8.2833 36.9489C8.13293 36.2608 7.63163 35.7025 6.96357 35.4791L4.58687 34.6845C3.62794 34.3639 3.05913 33.378 3.2615 32.3874L3.7691 29.9027C3.90961 29.2148 3.6792 28.5037 3.16201 28.029L1.30137 26.3211C0.557957 25.6387 0.439341 24.5094 1.02475 23.6874L2.4941 21.6244C2.90103 21.053 2.97889 20.3102 2.69926 19.6669L1.68813 17.3406C1.28559 16.4145 1.63656 15.3336 2.50638 14.8206L4.67372 13.5424C5.27932 13.1853 5.65291 12.5364 5.6577 11.8333L5.67493 9.30191C5.68183 8.28919 6.44463 7.44146 7.45101 7.32809L9.9323 7.04858C10.6337 6.96957 11.2414 6.52675 11.5316 5.88335L12.565 3.59181C12.9827 2.66567 14.0283 2.19981 14.9962 2.50868L17.3665 3.26506C18.0408 3.48025 18.7786 3.32298 19.3066 2.85151L21.1678 1.18956Z" fill="white"/>
</svg>
