<svg width="45" height="45" viewBox="0 0 45 45" fill="none" xmlns="http://www.w3.org/2000/svg">
<path d="M21.172 1.17942C21.9295 0.506641 23.0705 0.506641 23.8281 1.17942L25.6955 2.83784C26.2224 3.30582 26.9568 3.46191 27.6285 3.24872L30.009 2.49323C30.9748 2.18674 32.0171 2.65082 32.4355 3.57356L33.4669 5.84815C33.758 6.49 34.3654 6.93129 35.0658 7.00976L37.5477 7.28781C38.5546 7.40062 39.3181 8.24853 39.325 9.26169L39.3421 11.7591C39.347 12.4639 39.7223 13.1141 40.3302 13.4706L42.4846 14.7342C43.3585 15.2467 43.7111 16.3319 43.3053 17.2603L42.3052 19.5488C42.0229 20.1945 42.1014 20.9412 42.5117 21.5142L43.9659 23.5447C44.5558 24.3684 44.4365 25.5032 43.6882 26.1863L41.8437 27.8701C41.3232 28.3453 41.0912 29.0593 41.233 29.7496L41.7355 32.1961C41.9394 33.1885 41.3689 34.1766 40.4075 34.4963L38.0375 35.2843C37.3688 35.5067 36.8664 36.0646 36.7152 36.753L36.1792 39.1923C35.9618 40.1819 35.0387 40.8525 34.0304 40.7535L31.5448 40.5095C30.8434 40.4406 30.1576 40.746 29.7394 41.3133L28.2576 43.3237C27.6565 44.1393 26.5404 44.3765 25.6595 43.8759L23.4881 42.642C22.8754 42.2938 22.1246 42.2938 21.5119 42.642L19.3405 43.8759C18.4596 44.3765 17.3435 44.1393 16.7424 43.3237L15.2606 41.3133C14.8425 40.746 14.1566 40.4406 13.4552 40.5095L10.9697 40.7535C9.96133 40.8525 9.03826 40.1819 8.82083 39.1923L8.28485 36.753C8.13361 36.0646 7.63125 35.5067 6.96249 35.2843L4.59255 34.4963C3.63112 34.1766 3.06063 33.1885 3.26449 32.1961L3.76702 29.7496C3.90883 29.0593 3.67683 28.3453 3.15633 27.8701L1.3118 26.1863C0.563516 25.5032 0.44425 24.3684 1.03416 23.5447L2.48829 21.5142C2.89863 20.9412 2.9771 20.1945 2.69487 19.5488L1.69468 17.2603C1.28893 16.3319 1.64151 15.2467 2.51546 14.7342L4.66978 13.4706C5.27769 13.1141 5.65307 12.4639 5.6579 11.7591L5.67499 9.26169C5.68193 8.24853 6.4454 7.40062 7.45228 7.28781L9.93427 7.00976C10.6346 6.93129 11.242 6.49 11.5331 5.84815L12.5645 3.57356C12.9829 2.65082 14.0253 2.18674 14.991 2.49323L17.3715 3.24872C18.0432 3.46191 18.7776 3.30582 19.3045 2.83784L21.172 1.17942Z" fill="#6DBF47"/>
</svg>
