<svg xmlns="http://www.w3.org/2000/svg" data-name="Layer 1" viewBox="0 0 512 512"><path fill="#fd7" d="M216,136H88a16,16,0,0,0-16,16v80a16,16,0,0,0,16,16H424a16,16,0,0,0,16-16V152a16,16,0,0,0-16-16H296"/><path fill="#ffa869" d="M120,184a48,48,0,0,1,48-48H144a48,48,0,0,0-48,48v25.11a16.59,16.59,0,0,0,24,14.83h0Z"/><path fill="#ff5576" d="M216,136H168a48,48,0,0,1-48-48h0a48,48,0,0,1,48-48h0a48,48,0,0,1,48,48Z"/><path fill="#fff" d="M168,40a47.74,47.74,0,0,0-19.18,4A19.71,19.71,0,0,0,168,60a28,28,0,0,1,28,28,20,20,0,0,0,20,20V88A48,48,0,0,0,168,40Z"/><path fill="#fd7" d="M104,248H408a0,0,0,0,1,0,0V471a1,1,0,0,1-1,1H105a1,1,0,0,1-1-1V248A0,0,0,0,1,104,248Z"/><path fill="#ffa869" d="M408 184v.23A39.76 39.76 0 0 1 368.23 224H164a12 12 0 0 0-12 12h0a12 12 0 0 0 12 12H424a16 16 0 0 0 16-16V152A32 32 0 0 0 408 184zM264 472H392a16 16 0 0 0 16-16V296a32 32 0 0 0-32 32v56a64 64 0 0 1-64 64H288a24 24 0 0 0-24 24z"/><path fill="#ff5576" d="M296 136h48a48 48 0 0 0 48-48h0a48 48 0 0 0-48-48h0a48 48 0 0 0-48 48zM217 120h78a1 1 0 0 1 1 1V248a0 0 0 0 1 0 0H216a0 0 0 0 1 0 0V121A1 1 0 0 1 217 120z"/><path fill="#b73958" d="M272,164v28a32,32,0,0,1-32,32H216v24h80V164a12,12,0,0,0-12-12h0A12,12,0,0,0,272,164Z"/><path fill="#ff5576" d="M216 136H168a48 48 0 0 0-48 48v32l32-16 32 16V184a47.86 47.86 0 0 1 32-45.06zM296 136h48a48 48 0 0 1 48 48v32l-32-16-32 16V184a47.86 47.86 0 0 0-32-45.06z"/><path fill="#444b54" d="M256,432a8,8,0,0,1-8-8V296a8,8,0,0,1,16,0V424A8,8,0,0,1,256,432Z"/><path fill="#444b54" d="M320,368H192a8,8,0,0,1,0-16H320a8,8,0,0,1,0,16Z"/><path fill="#444b54" d="M224,400a8,8,0,0,1-5.66-13.66l64-64a8,8,0,0,1,11.32,11.32l-64,64A8,8,0,0,1,224,400Z"/><path fill="#444b54" d="M288,400a8,8,0,0,1-5.66-2.34l-64-64a8,8,0,0,1,11.32-11.32l64,64A8,8,0,0,1,288,400Z"/><circle cx="199.43" cy="416.57" r="8" fill="#444b54"/><circle cx="312.57" cy="303.43" r="8" fill="#444b54"/><circle cx="312.57" cy="416.57" r="8" fill="#444b54"/><circle cx="199.43" cy="303.43" r="8" fill="#444b54"/><path fill="#444b54" d="M392,480H120a24,24,0,0,1-24-24V296a8,8,0,0,1,16,0V456a8,8,0,0,0,8,8H392a8,8,0,0,0,8-8V248a8,8,0,0,1,16,0V456A24,24,0,0,1,392,480Z"/><path fill="#444b54" d="M424,256H88a24,24,0,0,1-24-24V152a24,24,0,0,1,24-24H216a8,8,0,0,1,0,16H88a8,8,0,0,0-8,8v80a8,8,0,0,0,8,8H424a8,8,0,0,0,8-8V152a8,8,0,0,0-8-8H408a8,8,0,0,1,0-16h16a24,24,0,0,1,24,24v80A24,24,0,0,1,424,256Z"/><path fill="#444b54" d="M216 144H168a56 56 0 1 1 56-56v48A8 8 0 0 1 216 144zM168 48a40 40 0 0 0 0 80h40V88A40 40 0 0 0 168 48zM344 144H296a8 8 0 0 1-8-8V88a56 56 0 1 1 56 56zm-40-16h40a40 40 0 1 0-40-40z"/><path fill="#444b54" d="M296,256H216a8,8,0,0,1-8-8V136a24,24,0,0,1,24-24h48a24,24,0,0,1,24,24V248A8,8,0,0,1,296,256Zm-72-16h64V136a8,8,0,0,0-8-8H232a8,8,0,0,0-8,8Z"/><path fill="#b73958" d="M168.38 91.78l-7.67-7.07A47.58 47.58 0 0 0 169.13 136H216A47.85 47.85 0 0 1 168.38 91.78zM343.62 91.78l7.67-7.07A47.58 47.58 0 0 1 342.87 136H296A47.85 47.85 0 0 0 343.62 91.78z"/><path fill="#444b54" d="M216 144a56.06 56.06 0 0 1-56-56 8 8 0 0 1 16 0 40 40 0 0 0 40 40 8 8 0 0 1 0 16zM296 144a8 8 0 0 1 0-16 40 40 0 0 0 40-40 8 8 0 0 1 16 0A56.06 56.06 0 0 1 296 144z"/><path fill="#444b54" d="M184 224a8.07 8.07 0 0 1-3.58-.84l-32-16a8 8 0 1 1 7.16-14.32L176 203.06V184a55.74 55.74 0 0 1 17-40H168a40 40 0 0 0-40 40v32a8 8 0 0 1-16 0V184a56.07 56.07 0 0 1 56-56h48a8 8 0 0 1 8 8v2.94a8 8 0 0 1-5.33 7.53A40 40 0 0 0 192 184v32a8 8 0 0 1-8 8zM392 224a8.07 8.07 0 0 1-3.58-.84L360 208.94l-28.42 14.22a8.11 8.11 0 0 1-7.78-.35A8 8 0 0 1 320 216V184a40 40 0 0 0-26.67-37.53 8 8 0 0 1-5.33-7.53V136a8 8 0 0 1 8-8h48a56.07 56.07 0 0 1 56 56v32a8 8 0 0 1-8 8zm-32-32a8.07 8.07 0 0 1 3.58.84L384 203.06V184a40 40 0 0 0-40-40H319a55.74 55.74 0 0 1 17 40v19.06l20.42-10.22A8.07 8.07 0 0 1 360 192z"/></svg>